<svg width="128" height="128" viewBox="0 0 128 128" fill="none" xmlns="http://www.w3.org/2000/svg">
  <!-- Rounded square background -->
  <rect width="128" height="128" rx="28" fill="#1E1E1E"/>
  
  <defs>
    <!-- Folder gradient - light blue -->
    <linearGradient id="folderGradient" x1="0%" y1="0%" x2="0%" y2="100%">
      <stop offset="0%" style="stop-color:#7EC8E3;stop-opacity:1" />
      <stop offset="100%" style="stop-color:#5DADE2;stop-opacity:1" />
    </linearGradient>
    
    <filter id="shadow">
      <feDropShadow dx="0" dy="2" stdDeviation="4" flood-opacity="0.4"/>
    </filter>
  </defs>
  
  <!-- Folder container representing multiple repositories -->
  <g filter="url(#shadow)">
    <g transform="translate(14, 28)">
      <!-- Main folder body -->
      <path d="M 0 12 L 0 68 C 0 71.3137 2.68629 74 6 74 L 94 74 C 97.3137 74 100 71.3137 100 68 L 100 16 C 100 12.6863 97.3137 10 94 10 L 40 10 L 33 3 C 31.8954 1.89543 30.368 1.26756 28.7639 1.26756 L 6 1.26756 C 2.68629 1.26756 0 3.95385 0 7.26756 L 0 12 Z" 
            fill="url(#folderGradient)"/>
      
      <!-- Folder tab highlight -->
      <path d="M 0 12 L 0 7.26756 C 0 3.95385 2.68629 1.26756 6 1.26756 L 28.7639 1.26756 C 30.368 1.26756 31.8954 1.89543 33 3 L 40 10 L 94 10 C 97.3137 10 100 12.6863 100 16 L 100 18 L 0 18 Z" 
            fill="#A8D8F0" opacity="0.6"/>
    </g>
  </g>
  
  <!-- Git official logo (scaled and centered) -->
  <g transform="translate(42, 50) scale(0.5)" filter="url(#shadow)">
    <path style="stroke:none;fill-rule:nonzero;fill:#f03c2e;fill-opacity:1" 
          d="M90.156 41.965 50.036 1.848a5.918 5.918 0 0 0-8.372 0l-8.328 8.332 10.566 10.566a7.03 7.03 0 0 1 7.23 1.684 7.034 7.034 0 0 1 1.669 7.277l10.187 10.184a7.028 7.028 0 0 1 7.278 1.672 7.04 7.04 0 0 1 0 9.957 7.05 7.05 0 0 1-9.965 0 7.044 7.044 0 0 1-1.528-7.66l-9.5-9.497V59.36a7.04 7.04 0 0 1 1.86 11.29 7.04 7.04 0 0 1-9.957 0 7.04 7.04 0 0 1 0-9.958 7.06 7.06 0 0 1 2.304-1.539V33.926a7.049 7.049 0 0 1-3.82-9.234L29.242 14.272 1.73 41.777a5.925 5.925 0 0 0 0 8.371L41.852 90.27a5.925 5.925 0 0 0 8.37 0l39.934-39.934a5.925 5.925 0 0 0 0-8.371"/>
  </g>
</svg>
